<svg width="281" height="136" viewBox="0 0 281 136" fill="none" xmlns="http://www.w3.org/2000/svg">
<g clip-path="url(#clip0_20_2)">
<path d="M136.898 2.0273L136.898 2.02735C130.175 5.90842 127.872 14.5041 131.753 21.2263L149.641 52.2089C153.522 58.9311 162.118 61.2343 168.84 57.3532L168.84 57.3532C175.562 53.4721 177.865 44.8764 173.984 38.1542L156.097 7.17164C152.216 0.44943 143.62 -1.85377 136.898 2.0273Z" fill="#EFEFEF"/>
<path d="M47 41.5C21.0426 41.5 0 62.5426 0 88.5C0 114.457 21.0426 135.5 47 135.5L234 135.5C259.957 135.5 281 114.457 281 88.5C281 62.5426 259.957 41.5 234 41.5L47 41.5Z" fill="#EFEFEF"/>
<path d="M140 135.5V41.5H234C259.957 41.5 281 62.5426 281 88.5C281 114.457 259.957 135.5 234 135.5H140Z" fill="#7DCACA"/>
<path d="M257.002 2.02735L257.002 2.02731C250.279 -1.85376 241.684 0.44943 237.803 7.17164L219.915 38.1542C216.034 44.8764 218.337 53.4721 225.059 57.3532L225.059 57.3532C231.782 61.2343 240.377 58.9311 244.258 52.2089L262.146 21.2263C266.027 14.5041 263.724 5.90842 257.002 2.02735Z" fill="#EFEFEF"/>
<path d="M230.5 92.5C236.299 92.5 241 87.799 241 82C241 76.201 236.299 71.5 230.5 71.5C224.701 71.5 220 76.201 220 82C220 87.799 224.701 92.5 230.5 92.5Z" fill="#EFEFEF"/>
</g>
<defs>
<clipPath id="clip0_20_2">
<rect width="281" height="136" fill="white"/>
</clipPath>
</defs>
</svg>
